<svg id="board" xmlns="http://www.w3.org/2000/svg" width="100.171" height="124.782" viewBox="0 0 100.171 124.782">
  <defs>
    <style>
      .cls-1 {
        fill: rgba(235,50,35,0.8);
      }
    </style>
  </defs>
  <path id="Path_60" data-name="Path 60" class="cls-1" d="M83.139,188.844a1.846,1.846,0,0,0-1.846,1.846v16.736a1.846,1.846,0,0,0,1.846,1.846H99.875a1.846,1.846,0,0,0,1.846-1.846V190.69a1.846,1.846,0,0,0-1.846-1.846Zm14.89,16.736H84.985V192.536H98.029Zm0,0" transform="translate(-61.481 -142.82)"/>
  <path id="Path_61" data-name="Path 61" class="cls-1" d="M217.13,191.871h-32a1.846,1.846,0,1,0,0,3.692h32a1.846,1.846,0,0,0,0-3.692Zm0,0" transform="translate(-138.619 -145.109)"/>
  <path id="Path_62" data-name="Path 62" class="cls-1" d="M218.976,227.045a1.846,1.846,0,0,0-1.846-1.846h-32a1.846,1.846,0,1,0,0,3.692h32A1.846,1.846,0,0,0,218.976,227.045Zm0,0" transform="translate(-138.619 -170.315)"/>
  <path id="Path_63" data-name="Path 63" class="cls-1" d="M185.135,257.516a1.845,1.845,0,1,0,0,3.691h24.612a1.845,1.845,0,1,0,0-3.691Zm0,0" transform="translate(-138.619 -194.755)"/>
  <path id="Path_64" data-name="Path 64" class="cls-1" d="M95.863,13.537a4.313,4.313,0,0,0,4.308-4.308V4.307A4.313,4.313,0,0,0,95.863,0H26.253a1.846,1.846,0,1,0,0,3.692h69.61a.616.616,0,0,1,.616.615V9.23a.616.616,0,0,1-.616.615H4.307a.616.616,0,0,1-.615-.615V4.307a.616.616,0,0,1,.615-.615H39.321c1.02,0-6.849-.826-6.849-1.846S28.708,0,27.688,0H4.307A4.312,4.312,0,0,0,0,4.307V9.23a4.312,4.312,0,0,0,4.307,4.307H5.415v29.89c0,1.019.826-8.067,1.846-8.067s1.846,7.787,1.846,6.768V13.537H91.064V72.113H9.107V42.128c0-1.02-.827-10.9-1.846-10.9s-1.846,9.877-1.846,10.9V72.113H4.307A4.312,4.312,0,0,0,0,76.42v4.922A4.313,4.313,0,0,0,4.307,85.65H32.472L16.159,122.184a1.846,1.846,0,0,0,1.685,2.6h9.845a1.846,1.846,0,0,0,1.685-1.093L43.317,92.464v30.472a1.846,1.846,0,0,0,1.846,1.846h9.845a1.846,1.846,0,0,0,1.846-1.846V92.464L70.8,123.689a1.846,1.846,0,0,0,1.685,1.093h9.85a1.847,1.847,0,0,0,1.627-2.719L67.7,85.65H92.646c1.02,0,0-.827,0-1.846a1.639,1.639,0,0,0-1.582-1.846H4.307a.616.616,0,0,1-.615-.616V76.42a.617.617,0,0,1,.615-.616H95.863a.616.616,0,0,1,.616.616v4.922a.616.616,0,0,1-.616.616H90.356a1.846,1.846,0,0,0,0,3.692h5.506a4.312,4.312,0,0,0,4.307-4.308V76.42a4.311,4.311,0,0,0-4.307-4.307H94.756V13.537ZM63.655,85.649,79.481,121.09h-5.8L57.854,85.649Zm-10.494,0V121.09H47.008V85.649Zm-10.844,0L26.492,121.09h-5.8L36.515,85.649Zm0,0"/>
  <path id="Path_65" data-name="Path 65" class="cls-1" d="M86.794,87.307a1.846,1.846,0,0,0-1.827-.218l-28.3,12.06a1.846,1.846,0,1,0,1.447,3.4L85.438,90.9l11.7,8.719a1.846,1.846,0,0,0,1.9.186l23.05-10.986-1.245,4.109a1.846,1.846,0,0,0,1.231,2.3,1.874,1.874,0,0,0,.536.079A1.846,1.846,0,0,0,124.374,94l2.462-8.122a1.847,1.847,0,0,0-1.15-2.275L118.057,80.9a1.846,1.846,0,0,0-1.235,3.48l3.446,1.222L98.453,96Zm0,0" transform="translate(-42.004 -61.099)"/>
</svg>
