<svg id="consultation" xmlns="http://www.w3.org/2000/svg" width="214" height="214" viewBox="0 0 214 214">
  <defs>
    <style>
      .cls-1 {
        fill: rgba(235,50,35,0.8);
      }
    </style>
  </defs>
  <path id="Path_25" data-name="Path 25" class="cls-1" d="M258.759,144.986l-43.211-9.6v-6.873a38.136,38.136,0,0,0,14.62-17.976h9.541a13.82,13.82,0,0,0,13.806-13.806V72.572a13.76,13.76,0,0,0-6.9-11.887V45.591a18.567,18.567,0,0,0-11.321-17.113l-.822-1.647a48.25,48.25,0,0,0-91.405,21.583V60.688a13.76,13.76,0,0,0-6.9,11.887V96.736a13.82,13.82,0,0,0,13.806,13.806h9.541a38.136,38.136,0,0,0,14.62,17.976v6.873l-43.211,9.6A24.018,24.018,0,0,0,112,168.575v45.516H277.677V168.575A24.024,24.024,0,0,0,258.759,144.986Zm-40.243-1.867-5.129,20.512-13.134-8.752L213.2,141.936Zm-27.751,36.456h8.15l5.521,27.613H185.244Zm8.282-6.9H190.63l-2.211-8.833,6.42-4.276,6.416,4.279Zm47.566-75.935a6.91,6.91,0,0,1-6.9,6.9h-7.562a37.89,37.89,0,0,0,.659-6.9V65.672h6.9a6.91,6.91,0,0,1,6.9,6.9ZM149.968,48.414a41.346,41.346,0,0,1,78.327-18.49l2.068,4.127,1.357.453A11.68,11.68,0,0,1,239.71,45.6V58.768h-6.9V48.414h-6.9v8.145a19.707,19.707,0,0,1-8.277,2.161,26.587,26.587,0,0,0,4.245-4.938l-5.744-3.829a19.738,19.738,0,0,1-15.767,8.774,26.773,26.773,0,0,0,4.252-4.945l-5.744-3.829A19.739,19.739,0,0,1,183.1,58.726a26.774,26.774,0,0,0,4.252-4.945l-5.744-3.829a19.763,19.763,0,0,1-16.474,8.816h-1.363V48.414h-6.9V58.768h-6.9Zm0,55.226a6.91,6.91,0,0,1-6.9-6.9V72.575a6.91,6.91,0,0,1,6.9-6.9h6.9V96.736a37.889,37.889,0,0,0,.659,6.9Zm13.806-6.9V65.672h1.363a26.676,26.676,0,0,0,12.443-3.079v3.079H182.4a26.676,26.676,0,0,0,12.443-3.079v3.079h4.815A26.676,26.676,0,0,0,212.1,62.593v3.079h4.815a26.572,26.572,0,0,0,8.991-1.63V96.736a30.971,30.971,0,0,1-.8,6.9h-17.1a10.341,10.341,0,0,0-9.719-6.9h-6.9a10.355,10.355,0,1,0,0,20.71h6.9a10.341,10.341,0,0,0,9.719-6.9h14.617a31.038,31.038,0,0,1-58.849-13.806Zm37.968,10.355a3.456,3.456,0,0,1-3.452,3.452h-6.9a3.452,3.452,0,1,1,0-6.9h6.9A3.456,3.456,0,0,1,201.742,107.091Zm-6.9,27.613a37.7,37.7,0,0,0,13.806-2.638v4.66l-13.806,13.806-13.806-13.806v-4.66A37.7,37.7,0,0,0,194.839,134.7Zm-18.359,7.232,12.944,12.944-13.134,8.752-5.129-20.512ZM118.9,168.575a17.155,17.155,0,0,1,13.513-16.847l32.007-7.114,7.545,30.195,10.355-6.9,2.075,8.3-6.2,30.979H146.516V169.22h-6.9v37.968H118.9Zm151.871,38.613h-20.71V169.22h-6.9v37.968H211.475l-6.2-30.979,2.075-8.3,10.355,6.9,7.545-30.195,32.007,7.114a17.155,17.155,0,0,1,13.513,16.847Zm0,0" transform="translate(-63.677 -0.091)"/>
  <path id="Path_26" data-name="Path 26" class="cls-1" d="M350.9,171.452A3.452,3.452,0,1,1,347.452,168,3.452,3.452,0,0,1,350.9,171.452Zm0,0" transform="translate(-195.581 -95.516)"/>
  <path id="Path_27" data-name="Path 27" class="cls-1" d="M254.9,171.452A3.452,3.452,0,1,1,251.452,168,3.452,3.452,0,0,1,254.9,171.452Zm0,0" transform="translate(-141 -95.516)"/>
  <path id="Path_28" data-name="Path 28" class="cls-1" d="M32,32H66.516v6.9H32Zm0,0" transform="translate(-18.194 -18.194)"/>
  <path id="Path_29" data-name="Path 29" class="cls-1" d="M32,64H66.516v6.9H32Zm0,0" transform="translate(-18.194 -36.387)"/>
  <path id="Path_30" data-name="Path 30" class="cls-1" d="M51.774,61.042V48.323H62.129V0H0V48.323H28.472ZM6.9,6.9H55.226V41.419H44.871v7.99l-14.639-7.99H6.9Zm0,0"/>
  <path id="Path_31" data-name="Path 31" class="cls-1" d="M72.484,200.484H16.8l3.907-5.857V138.355a10.355,10.355,0,0,0-20.71,0v56.272l8.508,12.76H72.484ZM10.355,134.9a3.456,3.456,0,0,1,3.452,3.452v6.9H6.9v-6.9A3.456,3.456,0,0,1,10.355,134.9Zm0,62.808L6.9,192.534V152.161h6.9v40.373Zm0,0" transform="translate(0 -72.774)"/>
  <path id="Path_32" data-name="Path 32" class="cls-1" d="M152,264h6.9v6.9H152Zm0,0" transform="translate(-86.419 -150.097)"/>
  <path id="Path_33" data-name="Path 33" class="cls-1" d="M64,264H95.065v6.9H64Zm0,0" transform="translate(-36.387 -150.097)"/>
  <path id="Path_34" data-name="Path 34" class="cls-1" d="M64,232H95.065v6.9H64Zm0,0" transform="translate(-36.387 -131.903)"/>
  <path id="Path_35" data-name="Path 35" class="cls-1" d="M120,200h6.9v6.9H120Zm0,0" transform="translate(-68.226 -113.71)"/>
  <path id="Path_36" data-name="Path 36" class="cls-1" d="M64,200H81.258v6.9H64Zm0,0" transform="translate(-36.387 -113.71)"/>
</svg>
