<svg xmlns="http://www.w3.org/2000/svg" width="214.495" height="214.495" viewBox="0 0 214.495 214.495">
  <defs>
    <style>
      .cls-1 {
        fill: rgba(235,50,35,0.82);
      }
    </style>
  </defs>
  <g id="group" transform="translate(395 224)">
    <path id="Path_16" data-name="Path 16" class="cls-1" d="M214.495,110.707V82.947a17.192,17.192,0,0,0-12.326-16.568L179.9,59.7V54.443A24.191,24.191,0,0,0,190.277,34.6V24.217a24.217,24.217,0,1,0-48.434,0V34.6A24.181,24.181,0,0,0,152.222,54.44v5.255L132.6,65.584a39.981,39.981,0,0,0-52.728-.6L62.273,59.7V54.443A24.191,24.191,0,0,0,72.651,34.6V24.217a24.217,24.217,0,1,0-48.434,0V34.6A24.181,24.181,0,0,0,34.6,54.44v5.255L12.326,66.376A17.2,17.2,0,0,0,0,82.947v27.759H6.919V82.947a10.309,10.309,0,0,1,7.4-9.94l22.276-6.684c2.014,2.615,5.909,6.328,11.842,6.328s9.828-3.713,11.842-6.328l14.188,4.255a39.932,39.932,0,0,0-8.414,20.1,24.184,24.184,0,0,0-41.833,16.568v10.379A24.181,24.181,0,0,0,34.6,137.47v5.255l-22.269,6.681A17.2,17.2,0,0,0,0,165.978V197.2H41.515a3.466,3.466,0,0,1,3.46,3.46v13.838H169.52V200.656a3.466,3.466,0,0,1,3.46-3.46h41.515V165.978a17.192,17.192,0,0,0-12.326-16.568L179.9,142.728v-5.255a24.191,24.191,0,0,0,10.379-19.844V107.251a24.2,24.2,0,0,0-41.515-16.918V87.054a18.6,18.6,0,0,0-9.507-16.235l14.963-4.492c2.014,2.612,5.909,6.325,11.842,6.325s9.828-3.713,11.842-6.328l22.28,6.684a10.31,10.31,0,0,1,7.394,9.94v27.759ZM48.434,6.919a17.318,17.318,0,0,1,17.3,17.3H49.867a8.409,8.409,0,0,1-5.906-2.446l-2.446-2.446-2.446,2.446a8.409,8.409,0,0,1-5.906,2.446H31.136A17.318,17.318,0,0,1,48.434,6.919ZM31.136,34.6v-3.46h2.027a15.151,15.151,0,0,0,8.352-2.48,15.151,15.151,0,0,0,8.352,2.48H65.732V34.6a17.3,17.3,0,0,1-34.6,0Zm17.3,31.136c-3.678,0-6.061-3.09-6.919-4.411V57.8a24.009,24.009,0,0,0,13.838,0v3.525C54.5,62.646,52.112,65.732,48.434,65.732Zm95.1,60.722a24.322,24.322,0,0,0,8.691,11.019v5.255l-22.266,6.681a16.985,16.985,0,0,0-2.142.816l-3.269-.753v-6.816a27.822,27.822,0,0,0,8.4-11.347A17.229,17.229,0,0,0,143.531,126.454Zm-36.283,22.308a27.487,27.487,0,0,0,10.379-2.037v3.767l-10.379,7.784-10.379-7.784v-3.767A27.487,27.487,0,0,0,107.247,148.762ZM92.62,155.955l8.434,6.328-8.676,5.206-2.194-10.97Zm10.8,27.4h7.646l2.691,24.217H100.734Zm8.247-6.919H102.82l-1.987-5.958,6.414-3.846,6.411,3.846Zm1.769-14.156,8.434-6.328,2.436.561-2.194,10.97Zm25.705-41.135a10.375,10.375,0,0,1-4.37,2.8,28.053,28.053,0,0,0,.149-2.858V104.531a10.446,10.446,0,0,1,6.867,8.6A10.32,10.32,0,0,1,139.145,121.148ZM128,121.086a20.758,20.758,0,0,1-41.515,0v-17.3H98.235a44.492,44.492,0,0,0,21.435-5.477l2.737,5.477H128Zm-48.286,2.858a10.229,10.229,0,0,1-.149-19.41v16.551A28.055,28.055,0,0,0,79.719,123.944Zm1.829,7.365a27.762,27.762,0,0,0,8.4,11.347v6.816l-3.269.753a17.9,17.9,0,0,0-2.139-.816l-22.269-6.681v-5.255a24.345,24.345,0,0,0,8.691-11.019A17.229,17.229,0,0,0,81.549,131.309ZM48.434,89.949a17.318,17.318,0,0,1,17.3,17.3H63.705A8.409,8.409,0,0,1,57.8,104.8l-2.446-2.446L52.907,104.8A8.409,8.409,0,0,1,47,107.247H31.136A17.318,17.318,0,0,1,48.434,89.949Zm-17.3,27.677v-3.46H47a15.151,15.151,0,0,0,8.352-2.48,15.151,15.151,0,0,0,8.352,2.48h2.027v3.46a17.3,17.3,0,0,1-34.6,0Zm17.3,24.217a24.071,24.071,0,0,0,6.919-1.02v3.525c-.858,1.328-3.242,4.414-6.919,4.414s-6.061-3.09-6.919-4.411v-3.525A24.187,24.187,0,0,0,48.434,141.843Zm-6.919,48.434H27.677V166.06H20.758v24.217H6.919v-24.3a10.309,10.309,0,0,1,7.4-9.94l22.276-6.684c2.014,2.615,5.909,6.328,11.842,6.328s9.828-3.713,11.842-6.328l13.119,3.938-9.649,2.225a24.11,24.11,0,0,0-18.771,23.6v4.245h6.919v-4.245A17.224,17.224,0,0,1,65.3,162.258l18.136-4.186,4.078,20.4,7.238-4.341,2.047,6.144-3.031,27.3H76.111V179.9H69.192v27.677h-17.3v-6.919A10.392,10.392,0,0,0,41.515,190.277Zm158.663-34.239a10.309,10.309,0,0,1,7.4,9.94v24.3H193.737V166.06h-6.919v24.217H172.98A10.392,10.392,0,0,0,162.6,200.656v6.919H145.3V179.9h-6.919v27.677H120.722l-3.034-27.3,2.047-6.144,7.238,4.341,4.078-20.4,18.139,4.186A17.224,17.224,0,0,1,162.6,179.113v4.245h6.919v-4.245a24.11,24.11,0,0,0-18.771-23.6l-9.649-2.225,13.119-3.938c2.014,2.615,5.909,6.328,11.842,6.328s9.828-3.713,11.842-6.328Zm-27.2-11.686c-.858,1.324-3.242,4.411-6.919,4.411s-6.071-3.1-6.919-4.411v-3.529a23.971,23.971,0,0,0,13.838,0Zm-6.919-9.428a17.318,17.318,0,0,1-17.3-17.3v-3.46h2.027a15.151,15.151,0,0,0,8.352-2.48,15.151,15.151,0,0,0,8.352,2.48h15.865v3.46A17.318,17.318,0,0,1,166.06,134.924Zm0-44.975a17.318,17.318,0,0,1,17.3,17.3H167.493a8.409,8.409,0,0,1-5.906-2.446l-2.446-2.446L156.7,104.8a8.409,8.409,0,0,1-5.906,2.446h-2.027A17.318,17.318,0,0,1,166.06,89.949Zm-24.217,10.673a18.175,18.175,0,0,0-10.973-3.754h-4.186l-4.255-8.51-3.26,2.172a37.613,37.613,0,0,1-20.933,6.338H83.625a18.175,18.175,0,0,0-10.973,3.754V95.505A33.235,33.235,0,0,1,129.385,72l3.671,3.671.775.26a11.7,11.7,0,0,1,8.012,11.115Zm24.217-93.7a17.318,17.318,0,0,1,17.3,17.3h-2.027a8.409,8.409,0,0,1-5.906-2.446l-2.446-2.446-2.446,2.446a8.409,8.409,0,0,1-5.906,2.446H148.762A17.318,17.318,0,0,1,166.06,6.919ZM148.762,34.6v-3.46h15.865a15.151,15.151,0,0,0,8.352-2.48,15.151,15.151,0,0,0,8.352,2.48h2.027V34.6a17.3,17.3,0,0,1-34.6,0Zm17.3,31.136c-3.684,0-6.071-3.1-6.919-4.411V57.793a23.971,23.971,0,0,0,13.838,0v3.525C172.121,62.646,169.738,65.732,166.06,65.732Zm0,0" transform="translate(-395 -224)"/>
  </g>
</svg>
