<svg id="individula" xmlns="http://www.w3.org/2000/svg" width="200.195" height="214.495" viewBox="0 0 200.195 214.495">
  <defs>
    <style>
      .cls-1 {
        fill: rgba(235,50,35,0.82);
      }
    </style>
  </defs>
  <path id="Path_1" data-name="Path 1" class="cls-1" d="M58.725,57.2a10.418,10.418,0,0,0,2.381-.29l-3.861,3.865,44.379,44.379V203.77a10.725,10.725,0,0,0,21.449,0V153.721h7.15V203.77a10.725,10.725,0,0,0,21.449,0V105.153l44.379-44.379-3.861-3.865a10.418,10.418,0,0,0,2.381.29,10.725,10.725,0,0,0,0-21.449,10.6,10.6,0,0,0-3.575.658V0H62.3V36.407a10.6,10.6,0,0,0-3.575-.658,10.725,10.725,0,0,0,0,21.449Zm81.722-3.575a14.3,14.3,0,1,1-27.6,0Zm-13.8,25.024a21.334,21.334,0,0,0,21.128-25.024h23.865L135.893,89.373H117.4L81.654,53.624H105.52a21.334,21.334,0,0,0,21.128,25.024ZM67.355,60.773l5.67-5.67,34.269,34.269h-5.67v5.67Zm48.569,143a3.575,3.575,0,0,1-7.15,0V153.721h7.15Zm28.6,0a3.575,3.575,0,0,1-7.15,0V153.721h7.15Zm-35.749-57.2V96.523h35.749v50.049Zm42.9-51.529v-5.67H146L180.272,55.1l.283.283,1.758-1.763h.033l-1.787,1.787,5.362,5.362Zm42.9-52.143A3.575,3.575,0,1,1,191,46.474,3.575,3.575,0,0,1,194.571,42.9ZM69.449,7.15h114.4V46.474H69.449ZM58.725,42.9a3.575,3.575,0,1,1-3.575,3.575A3.575,3.575,0,0,1,58.725,42.9Zm0,0" transform="translate(-26.551)"/>
  <path id="Path_2" data-name="Path 2" class="cls-1" d="M0,56H14.3v7.15H0Zm0,0" transform="translate(0 -30.976)"/>
  <path id="Path_3" data-name="Path 3" class="cls-1" d="M2.348,7.4,7.4,2.344,18.128,13.068l-5.055,5.057Zm0,0" transform="translate(-1.299 -1.296)"/>
  <path id="Path_4" data-name="Path 4" class="cls-1" d="M2.348,101.065,13.074,90.34l5.055,5.055L7.4,106.121Zm0,0" transform="translate(-1.299 -49.97)"/>
  <path id="Path_5" data-name="Path 5" class="cls-1" d="M416,56h14.3v7.15H416Zm0,0" transform="translate(-230.105 -30.976)"/>
  <path id="Path_6" data-name="Path 6" class="cls-1" d="M410.344,13.068,421.068,2.344,426.124,7.4,415.4,18.124Zm0,0" transform="translate(-226.976 -1.296)"/>
  <path id="Path_7" data-name="Path 7" class="cls-1" d="M410.344,95.4,415.4,90.34l10.726,10.726-5.057,5.055Zm0,0" transform="translate(-226.976 -49.97)"/>
  <path id="Path_8" data-name="Path 8" class="cls-1" d="M7.77,198.592a13.149,13.149,0,0,0,4.725,9.677l20.283,20.276,20.4-20.163a12.317,12.317,0,0,0,0-19.582A17.249,17.249,0,0,0,32.9,187.014,17.249,17.249,0,0,0,12.613,188.8,13.29,13.29,0,0,0,7.77,198.592Zm9.651-4.509a10.014,10.014,0,0,1,13.057,0l2.409,2.2,2.409-2.2a10.014,10.014,0,0,1,13.057,0,6.667,6.667,0,0,1,2.5,4.509,6.819,6.819,0,0,1-2.617,4.608L32.808,218.469,17.435,203.1a5.3,5.3,0,0,1,0-9.012Zm0,0" transform="translate(-4.298 -102.069)"/>
  <path id="Path_9" data-name="Path 9" class="cls-1" d="M342.077,267.9a14.5,14.5,0,0,0-16.656,1.677,13.41,13.41,0,0,0,.211,19.847l16.445,12.334,16.656-12.512a13.434,13.434,0,0,0,0-19.662A14.5,14.5,0,0,0,342.077,267.9Zm11.943,7.054a6.372,6.372,0,0,1,.211,8.752l-12.154,9.115-11.943-8.937a6.309,6.309,0,0,1,0-8.937,7.3,7.3,0,0,1,9.587,0l2.357,2.063,2.357-2.063A7.3,7.3,0,0,1,354.02,274.955Zm0,0" transform="translate(-177.631 -147.145)"/>
  <path id="Path_10" data-name="Path 10" class="cls-1" d="M144,32h14.3v7.15H144Zm0,0" transform="translate(-79.652 -17.7)"/>
  <path id="Path_11" data-name="Path 11" class="cls-1" d="M192,32h35.749v7.15H192Zm0,0" transform="translate(-106.202 -17.7)"/>
  <path id="Path_12" data-name="Path 12" class="cls-1" d="M288,32h7.15v7.15H288Zm0,0" transform="translate(-159.303 -17.7)"/>
  <path id="Path_13" data-name="Path 13" class="cls-1" d="M128,64h7.15v7.15H128Zm0,0" transform="translate(-70.801 -35.401)"/>
  <path id="Path_14" data-name="Path 14" class="cls-1" d="M272,64h21.449v7.15H272Zm0,0" transform="translate(-150.453 -35.401)"/>
  <path id="Path_15" data-name="Path 15" class="cls-1" d="M160,64h7.15v7.15H160Zm0,0" transform="translate(-88.502 -35.401)"/>
</svg>
