<svg xmlns="http://www.w3.org/2000/svg" width="125.075" height="124.965" viewBox="0 0 125.075 124.965">
  <defs>
    <style>
      .cls-1 {
        fill: rgba(235,50,35,0.8);
      }
    </style>
  </defs>
  <g id="location" transform="translate(0.049 -0.219)">
    <path id="Path_57" data-name="Path 57" class="cls-1" d="M124.818,58.01a2.008,2.008,0,0,0,.123-.609,2.089,2.089,0,0,0-.1-.648l-.161-.455a62.414,62.414,0,0,0-22.726-42.02c-.918-.748-1.878-1.423-2.838-2.116-.048-.04-.073-.1-.125-.133s-.094-.034-.138-.061A62.724,62.724,0,0,0,62.422.222c-.538,0-1.079,0-1.482.042A61.15,61.15,0,0,0,40.548,4.187,18.759,18.759,0,0,0,10.251,19a19.821,19.821,0,0,0,1.638,6.918,62.736,62.736,0,0,0-5.6,9.233c-.032.05-.05.1-.077.156A62.6,62.6,0,0,0,117.535,92.535a61.631,61.631,0,0,0,7.4-26.649c.065-1.007.088-2.033.088-3.06C125.026,61.21,124.943,59.607,124.818,58.01ZM118.754,47.3c-.265-.235-.509-.507-.787-.724a27.5,27.5,0,0,0-9.111-4.551,19.615,19.615,0,0,0-9.15-.1,18.04,18.04,0,0,1-7.8.039c-4.989-1.089-8.931-1.948-11.022-5.287-2.995-4.8-1.591-11.547,1.569-13.921A4.762,4.762,0,0,1,86.028,22,13.34,13.34,0,0,0,92.5,20.909a16.768,16.768,0,0,0,5.635-4.291c.394.3.811.579,1.2.894A58.35,58.35,0,0,1,118.754,47.3ZM29.033,4.4A14.631,14.631,0,0,1,43.64,19c0,6.242-9.375,20.533-14.608,27.778A131.146,131.146,0,0,1,16.159,25.389,17.394,17.394,0,0,1,14.425,19,14.624,14.624,0,0,1,29.033,4.4ZM3.991,62.827A59.088,59.088,0,0,1,5.162,51.247c.223,2.9.6,5.482.939,7.721,1.293,8.556,2.515,16.622,8.821,24,2.637,3.108,7.053,8.3,13.881,9.072s15.378-3.16,17.848-4.383l.948-.478a9.178,9.178,0,0,1,4.36-1.4,10.293,10.293,0,0,1,6.828,3.487c3.561,3.942,4.465,10.525,1.934,14.086a6.409,6.409,0,0,1-3.206,2.227,9.749,9.749,0,0,0-5.233,4.174,12.887,12.887,0,0,0-.9,10.434A58.521,58.521,0,0,1,3.991,62.827Zm58.431,58.431a58.863,58.863,0,0,1-6.037-.311,7.391,7.391,0,0,1-.476-.685,8.88,8.88,0,0,1-.04-8.372,5.757,5.757,0,0,1,3.277-2.465,10.4,10.4,0,0,0,4.977-3.654c3.63-5.1,2.6-13.946-2.233-19.295a14.331,14.331,0,0,0-9.885-4.869h-.093A12.647,12.647,0,0,0,45.7,83.46l-.891.45c-4.56,2.248-11.048,4.47-15.538,3.965-5.182-.58-8.781-4.821-11.169-7.629-5.535-6.469-6.618-13.628-7.869-21.912a60,60,0,0,1-.159-21.463,58.529,58.529,0,0,1,3.781-6.553c.069.139.146.28.209.418.133.265.271.528.417.793.209.394.418.789.627,1.186q.216.4.438.8.332.595.669,1.189c.151.263.3.527.453.79q.348.595.7,1.185c.154.259.307.516.463.772.247.417.5.807.744,1.209.142.228.281.46.417.685.309.5.615.975.922,1.461.082.125.163.257.243.38q.573.888,1.133,1.733c.142.209.279.418.418.627.229.344.459.689.682,1.018l.5.724c.179.265.361.53.536.783l.5.719c.155.224.31.443.458.653s.315.449.47.664.259.365.382.538l.417.576.34.472.332.458.271.367.255.346.152.209c.186.253.328.442.368.494a2.085,2.085,0,0,0,3.338,0C32.449,49.248,47.814,28.649,47.814,19c0-.609-.038-1.215-.1-1.816-.018-.185-.048-.371-.071-.556-.054-.418-.118-.836-.208-1.252-.04-.209-.084-.4-.129-.605q-.145-.627-.336-1.252c-.052-.167-.1-.336-.151-.5-.187-.559-.4-1.113-.638-1.651-.046-.1-.1-.209-.149-.3-.209-.434-.417-.864-.657-1.284-.1-.187-.219-.369-.331-.553q-.3-.494-.627-.972c-.129-.185-.261-.371-.4-.553-.071-.092-.131-.19-.209-.279a56.988,56.988,0,0,1,13.41-2.78c-3.254,6.141-4.316,11.822-3.1,16.9a21.758,21.758,0,0,0,5.009,9.13c1.964,2.431,3.376,4.184,3.288,7.045-.179,6.052-7.013,11.089-9.6,12.993A35.935,35.935,0,0,1,41.617,56.13c-3.791,1.238-7.06,2.306-8.311,6.037a11.9,11.9,0,0,0,5.053,12.867,10.542,10.542,0,0,0,8.316.735,25.668,25.668,0,0,1,9.209-.44c3.965.561,7.383,1.043,9,3.314.962,1.356.912,2.758.724,5.33A25.283,25.283,0,0,0,66.7,94.788c.952,2.855,2.389,7.166,5.844,7.664a4.319,4.319,0,0,0,.678.054c2.444,0,3.94-2.158,5.514-4.428.695-1,1.461-2.087,2.379-3.174,4.295,6.939,8.658,12.73,8.861,13a2.087,2.087,0,0,0,3.339,0A173.484,173.484,0,0,0,105.661,88.89a27.421,27.421,0,0,1,7.247,3.3A58.336,58.336,0,0,1,62.422,121.258Zm38.951-56.788a14.572,14.572,0,0,1,4.873,10.878c0,1.5-.609,4.476-3.5,10.127a155.54,155.54,0,0,1-11.1,17.642c-1.964-2.736-5.342-7.592-8.366-12.7a77.158,77.158,0,0,1-4.508-8.688,17.394,17.394,0,0,1-1.734-6.386A14.624,14.624,0,0,1,91.637,60.74q.677,0,1.344.061A14.478,14.478,0,0,1,101.372,64.469Zm19.407,1.2a57.49,57.49,0,0,1-5.876,22.84,31.74,31.74,0,0,0-7.328-3.415,24.723,24.723,0,0,0,2.844-9.749A18.86,18.86,0,0,0,99.907,58.482l-.131-.058c-.467-.225-.94-.436-1.424-.626-.332-.129-.677-.23-1.017-.338-.209-.063-.4-.142-.6-.209-.538-.153-1.085-.277-1.635-.38h-.028c-.333-.062-.671-.1-1.01-.14A18.65,18.65,0,0,0,72.856,75.348a21.485,21.485,0,0,0,2.066,8.02,76.988,76.988,0,0,0,3.953,7.773A38.468,38.468,0,0,0,75.3,95.7a10.863,10.863,0,0,1-2.147,2.628c-.418-.063-1.191-.954-2.5-4.858a21.409,21.409,0,0,1-.878-9.194,11.162,11.162,0,0,0-1.49-8.054c-2.665-3.726-7.316-4.383-11.842-5.024a29.4,29.4,0,0,0-10.555.474c-2.67.51-3.909.7-5.326-.182a7.909,7.909,0,0,1-3.3-8c.557-1.669,2.227-2.272,5.635-3.391a40.06,40.06,0,0,0,12.4-6.024c3.041-2.23,11.061-8.15,11.3-16.225.133-4.418-2.077-7.144-4.213-9.779a18.048,18.048,0,0,1-4.19-7.461c-1.109-4.649.265-10.1,3.99-16.213h.239a58.57,58.57,0,0,1,32.294,9.763A12.536,12.536,0,0,1,90.777,17.1a9.342,9.342,0,0,1-4.624.723,8.753,8.753,0,0,0-6.2,1.595c-4.732,3.562-6.852,12.646-2.6,19.468,3.027,4.835,8.2,5.962,13.846,7.193a21.849,21.849,0,0,0,9.215-.04,15.741,15.741,0,0,1,7.406.023,23.251,23.251,0,0,1,7.576,3.792,17.088,17.088,0,0,1,5.181,7.4c.171,1.843.277,3.692.277,5.57,0,.933-.018,1.878-.082,2.845Zm0,0" transform="translate(0 0)"/>
    <path id="Path_58" data-name="Path 58" class="cls-1" d="M87.785,48.925a8.347,8.347,0,1,0-8.347-8.347A8.347,8.347,0,0,0,87.785,48.925Zm0-12.521a4.174,4.174,0,1,1-4.174,4.174A4.174,4.174,0,0,1,87.785,36.4Zm0,0" transform="translate(-58.752 -23.661)"/>
    <path id="Path_59" data-name="Path 59" class="cls-1" d="M319.438,256.578a8.347,8.347,0,1,0,8.347-8.347A8.347,8.347,0,0,0,319.438,256.578Zm12.521,0a4.174,4.174,0,1,1-4.174-4.174A4.174,4.174,0,0,1,331.958,256.578Zm0,0" transform="translate(-236.147 -183.317)"/>
  </g>
</svg>
