<svg xmlns="http://www.w3.org/2000/svg" width="126.684" height="125.155" viewBox="0 0 126.684 125.155">
  <defs>
    <style>
      .cls-1 {
        fill: rgba(235,50,35,0.8);
      }
    </style>
  </defs>
  <g id="time" transform="translate(-0.001 -0.152)">
    <path id="Path_51" data-name="Path 51" class="cls-1" d="M93.725,268.113a2.553,2.553,0,0,0-2.553,2.553v1.013a1.532,1.532,0,1,1-3.063,0v-1.013a2.553,2.553,0,1,0-5.105,0v1.013a6.637,6.637,0,1,0,13.273,0v-1.013A2.554,2.554,0,0,0,93.725,268.113Zm0,0" transform="translate(-61.816 -199.563)"/>
    <path id="Path_52" data-name="Path 52" class="cls-1" d="M168.641,278.28a6.639,6.639,0,0,0,6.637-6.6v-1.013a2.553,2.553,0,1,0-5.105,0v1.013a1.532,1.532,0,0,1-3.063,0v-1.013a2.553,2.553,0,1,0-5.105,0v1.013A6.639,6.639,0,0,0,168.641,278.28Zm0,0" transform="translate(-120.651 -199.563)"/>
    <path id="Path_53" data-name="Path 53" class="cls-1" d="M105.733,191.582h-4.844l-.094-.475a18.937,18.937,0,0,0,9.987-16.623V160.7h1.27a2.5,2.5,0,0,0,2.553-2.447v-.043a13.616,13.616,0,0,0-13.641-13.591H89.523a8.044,8.044,0,0,0-6.449,3.148c-6.951.669-9.623,6.735-10.083,10.075a2.155,2.155,0,0,0,.013.321v16.325a18.866,18.866,0,0,0,10.5,16.931l-.09.168H72.361a18.531,18.531,0,0,0-14.226-6.637H48.945L48.514,183a26.207,26.207,0,0,0,15.557-23.968v-7.854a14.471,14.471,0,0,0,3.528.465,13.816,13.816,0,0,0,2.539-.236,13.36,13.36,0,1,0-10.725-23.633,26.188,26.188,0,0,0-47.669,15.064v16.194a26.208,26.208,0,0,0,16.47,24.36l-.383,1.557H18.679A18.778,18.778,0,0,0,0,203.781v5.748A2.42,2.42,0,0,0,2.368,212H116.885a2.507,2.507,0,0,0,2.576-2.436v-4.283A13.737,13.737,0,0,0,105.733,191.582ZM72.328,131.454a8.245,8.245,0,0,1-3.166,14.931,8.567,8.567,0,0,1-5.091-.636v-2.914a26.085,26.085,0,0,0-2.152-10.526A8.3,8.3,0,0,1,72.328,131.454ZM16.849,142.835a21.121,21.121,0,0,1,42.239-.412,18.406,18.406,0,0,1-5.033-7.883,2.561,2.561,0,0,0-4.7-.66c-4.151,7.169-11.076,11.209-20.695,12.007a45.471,45.471,0,0,1-11.814-.631Zm0,16.194v-8.587a51.084,51.084,0,0,0,8.353.691c1.194,0,2.411-.043,3.694-.145,9.449-.751,16.95-4.389,22.1-10.6a24.133,24.133,0,0,0,7.975,8.384v10.256a21.059,21.059,0,1,1-42.117,0ZM35.482,206.9H5.107v-3.117a13.666,13.666,0,0,1,13.571-13.73H28.7l6.78,8.481ZM32.658,186.9l.416-2.046a26.353,26.353,0,0,0,10.606-.2l.414,2.173-5.954,6.828ZM71.728,206.9H40.587v-8.314l7.4-8.533H58.133a13.686,13.686,0,0,1,13.6,13.73Zm15.129-55.658c0-.008.008.04.012.032a2.948,2.948,0,0,1,2.654-1.55h11.429a8.329,8.329,0,0,1,8.159,5.871H89.523a3,3,0,0,1-3-2.991A2.954,2.954,0,0,1,86.857,151.239Zm-8.747,7.129a6.568,6.568,0,0,1,3.386-4.974,8.124,8.124,0,0,0,3.341,5.779,13.216,13.216,0,0,1-6.727,3.014Zm0,16.116v-7.177a20.635,20.635,0,0,0,2.095-.323,2.629,2.629,0,0,0-.819,1.778v.7a5.36,5.36,0,1,0,10.721,0v-.7a2.553,2.553,0,1,0-5.105,0v.7a.255.255,0,0,1-.511,0v-.7a2.51,2.51,0,0,0-1.9-2.488,18,18,0,0,0,7.83-5.578h15.254v13.788a13.784,13.784,0,0,1-27.567,0ZM89.6,206.9H76.834v-3.117a18.983,18.983,0,0,0-1.343-7.093h8.893L89.6,200.92Zm-1.353-13.656.067-.21a18.719,18.719,0,0,0,7.645-.135l.1.33-3.9,3.186ZM114.356,206.9H94.7v-5.983l5.19-4.228h5.842a8.626,8.626,0,0,1,8.623,8.6Zm0,0" transform="translate(0 -86.696)"/>
    <path id="Path_54" data-name="Path 54" class="cls-1" d="M371.364,319.65a5.363,5.363,0,0,0,5.36-5.338v-.7a2.553,2.553,0,1,0-5.105,0v.7a.255.255,0,0,1-.51,0v-.7a2.553,2.553,0,1,0-5.105,0v.7A5.362,5.362,0,0,0,371.364,319.65Zm0,0" transform="translate(-272.579 -231.549)"/>
    <path id="Path_55" data-name="Path 55" class="cls-1" d="M326.782.152a24.8,24.8,0,1,0,24.8,24.8,24.8,24.8,0,0,0-24.8-24.8Zm0,44.5a19.7,19.7,0,1,1,19.7-19.7,19.7,19.7,0,0,1-19.7,19.7Zm0,0" transform="translate(-224.898)"/>
    <path id="Path_56" data-name="Path 56" class="cls-1" d="M396.527,56.66h-7.418v-10.4a2.553,2.553,0,0,0-5.105,0V59.244a2.593,2.593,0,0,0,2.628,2.522h9.9a2.553,2.553,0,1,0,0-5.105Zm0,0" transform="translate(-285.984 -32.434)"/>
  </g>
</svg>
