<svg id="unique" xmlns="http://www.w3.org/2000/svg" width="125.183" height="125.183" viewBox="0 0 125.183 125.183">
  <defs>
    <style>
      .cls-1 {
        fill: rgba(235,50,35,0.8);
      }
    </style>
  </defs>
  <path id="Path_37" data-name="Path 37" class="cls-1" d="M152.076,224.076A8.084,8.084,0,0,0,160.153,216h-4.038a4.038,4.038,0,0,1-8.076,0H144A8.084,8.084,0,0,0,152.076,224.076Zm0,0" transform="translate(-107.657 -161.485)"/>
  <path id="Path_38" data-name="Path 38" class="cls-1" d="M132.038,162.019A2.019,2.019,0,1,1,130.019,160,2.019,2.019,0,0,1,132.038,162.019Zm0,0" transform="translate(-95.695 -119.619)"/>
  <path id="Path_39" data-name="Path 39" class="cls-1" d="M212.038,162.019A2.019,2.019,0,1,1,210.019,160,2.019,2.019,0,0,1,212.038,162.019Zm0,0" transform="translate(-155.504 -119.619)"/>
  <path id="Path_40" data-name="Path 40" class="cls-1" d="M68.649,60.572V76.615l-10.1-3.366V67.595A22.244,22.244,0,0,0,65.8,56.413a10.073,10.073,0,0,0,8.906-9.974V30.286a30.286,30.286,0,0,0-60.572,0V46.439a10.073,10.073,0,0,0,8.906,9.974,22.244,22.244,0,0,0,7.246,11.182V73.25L9.664,80.127A14.111,14.111,0,0,0,0,93.532v19.536H68.649v12.114h56.534V73.87l-13.3-13.3Zm44.42,6.893,5.221,5.221h-5.221ZM60.262,78.075,57.184,93.457l-9.651-6.9,9.546-9.546Zm6.283-25.925c.042-.555.085-1.109.085-1.674V40.753a6.02,6.02,0,0,1-.085,11.4ZM18.172,46.439a6.049,6.049,0,0,1,4.038-5.686v9.724c0,.565.042,1.119.085,1.674A6.047,6.047,0,0,1,18.172,46.439Zm4.426-9.93a9.988,9.988,0,0,0-4.426,1.906V30.286a26.248,26.248,0,1,1,52.5,0v8.129a9.988,9.988,0,0,0-4.426-1.906,11.091,11.091,0,0,0-17.38-6.019L44.42,33.819l-4.44-3.329A11.093,11.093,0,0,0,22.6,36.509Zm3.651,13.968v-11.1a7.068,7.068,0,0,1,11.309-5.653l6.863,5.148,6.865-5.148a7.067,7.067,0,0,1,11.307,5.653v11.1a18.172,18.172,0,0,1-36.343,0ZM44.42,72.687a22.065,22.065,0,0,0,10.1-2.451V73.87l-10.1,10.1-10.1-10.1V70.236A22.065,22.065,0,0,0,44.42,72.687ZM31.76,77.016l9.546,9.546-9.651,6.9L28.578,78.075ZM20.191,109.03V96.916H16.153V109.03H4.038v-15.5a10.082,10.082,0,0,1,6.9-9.577l13.777-4.591,4.2,21.01L44.42,89.3l15.5,11.072,4.2-21.01,4.525,1.506v28.16Zm52.5,12.114V64.61H109.03V76.725h12.114v44.42Zm0,0"/>
  <path id="Path_41" data-name="Path 41" class="cls-1" d="M384,404.191h20.191V384H384Zm4.038-16.153h12.114v12.114H388.038Zm0,0" transform="translate(-287.085 -287.085)"/>
  <path id="Path_42" data-name="Path 42" class="cls-1" d="M304,448h16.153v4.038H304Zm0,0" transform="translate(-227.275 -334.932)"/>
  <path id="Path_43" data-name="Path 43" class="cls-1" d="M304,416h16.153v4.038H304Zm0,0" transform="translate(-227.275 -311.008)"/>
  <path id="Path_44" data-name="Path 44" class="cls-1" d="M304,384h16.153v4.038H304Zm0,0" transform="translate(-227.275 -287.085)"/>
  <path id="Path_45" data-name="Path 45" class="cls-1" d="M304,272h4.038v4.038H304Zm0,0" transform="translate(-227.275 -203.352)"/>
  <path id="Path_46" data-name="Path 46" class="cls-1" d="M336,272h20.191v4.038H336Zm0,0" transform="translate(-251.199 -203.352)"/>
  <path id="Path_47" data-name="Path 47" class="cls-1" d="M304,304h28.267v4.038H304Zm0,0" transform="translate(-227.275 -227.275)"/>
  <path id="Path_48" data-name="Path 48" class="cls-1" d="M448,336h4.038v4.038H448Zm0,0" transform="translate(-334.932 -251.199)"/>
  <path id="Path_49" data-name="Path 49" class="cls-1" d="M304,336h32.305v4.038H304Zm0,0" transform="translate(-227.275 -251.199)"/>
  <path id="Path_50" data-name="Path 50" class="cls-1" d="M342.21,92.42a22.174,22.174,0,0,0,18.069-35.077l3.609-3.94-2.977-2.729-3.286,3.584A22.2,22.2,0,1,0,342.21,92.42Zm0-40.381A18.1,18.1,0,0,1,354.9,57.229L339.977,73.511l-8.621-6.9-2.524,3.153L340.4,79.024,357.476,60.4a18.154,18.154,0,1,1-15.266-8.357Zm0,0" transform="translate(-239.237 -35.886)"/>
</svg>
